<svg xmlns="http://www.w3.org/2000/svg" viewBox="0 0 1200 675" font-family="ui-monospace,monospace">
  <defs>
    <radialGradient id="i1" cx="70%" cy="25%" r="70%">
      <stop offset="0%" stop-color="#4ade80" stop-opacity="0.26"/>
      <stop offset="100%" stop-color="#4ade80" stop-opacity="0"/>
    </radialGradient>
    <radialGradient id="i2" cx="20%" cy="85%" r="60%">
      <stop offset="0%" stop-color="#ffb454" stop-opacity="0.15"/>
      <stop offset="100%" stop-color="#ffb454" stop-opacity="0"/>
    </radialGradient>
    <pattern id="gridi" width="60" height="60" patternUnits="userSpaceOnUse">
      <path d="M60 0H0V60" fill="none" stroke="#f4f4f5" stroke-opacity="0.05"/>
    </pattern>
  </defs>
  <rect width="1200" height="675" fill="#0c0c10"/>
  <rect width="1200" height="675" fill="url(#i1)"/>
  <rect width="1200" height="675" fill="url(#i2)"/>
  <rect width="1200" height="675" fill="url(#gridi)"/>
  <!-- circuit traces -->
  <g stroke="#4ade80" stroke-opacity="0.55" fill="none" stroke-width="2">
    <path d="M840 120 h120 v60 h80"/>
    <path d="M840 160 h80 v80 h160"/>
    <path d="M840 200 h50 v120 h210"/>
  </g>
  <g fill="#4ade80">
    <circle cx="840" cy="120" r="6"/><circle cx="840" cy="160" r="6"/><circle cx="840" cy="200" r="6"/>
    <circle cx="1040" cy="180" r="6"/><circle cx="1080" cy="240" r="6"/><circle cx="1100" cy="320" r="6"/>
  </g>
  <rect x="760" y="100" width="80" height="130" rx="10" fill="#131318" stroke="#4ade80" stroke-opacity="0.8"/>
  <text x="800" y="172" font-size="18" fill="#4ade80" text-anchor="middle" letter-spacing="2">ESP32</text>
  <text x="80" y="360" font-size="150" font-weight="700" fill="none" stroke="#f4f4f5" stroke-opacity="0.85" letter-spacing="-4" font-family="'Space Grotesk',sans-serif">2,000</text>
  <text x="80" y="500" font-size="150" font-weight="700" fill="#4ade80" letter-spacing="-4" font-family="'Space Grotesk',sans-serif">TREES</text>
  <text x="82" y="560" font-size="22" fill="#9a9aa3" letter-spacing="6">AUTOMATED IRRIGATION · ESP32 · SENSORS · CLOUD DASHBOARD</text>
</svg>
